<?xml version="1.0" encoding="UTF-8"?>
<!DOCTYPE svg PUBLIC "-//W3C//DTD SVG 1.1//EN" "http://www.w3.org/Graphics/SVG/1.1/DTD/svg11.dtd">
<!-- Creator: CorelDRAW 2021 (64-Bit) -->
<svg xmlns="http://www.w3.org/2000/svg" xml:space="preserve" width="84.6666mm" height="31.4544mm" version="1.1" style="shape-rendering:geometricPrecision; text-rendering:geometricPrecision; image-rendering:optimizeQuality; fill-rule:evenodd; clip-rule:evenodd"
viewBox="0 0 8466.66 3145.44"
 xmlns:xlink="http://www.w3.org/1999/xlink"
 xmlns:xodm="http://www.corel.com/coreldraw/odm/2003">
 <defs>
  <style type="text/css">
   <![CDATA[
    .fil0 {fill:#FFB4B1}
   ]]>
  </style>
 </defs>
 <g id="Layer_x0020_1">
  <metadata id="CorelCorpID_0Corel-Layer"/>
  <path class="fil0" d="M3029.04 3082.82c-54.2,0 -126.43,-36.85 -126.43,-96.33 0,-46.74 12.94,-72.48 30.6,-107.87l23.51 -41.21c17.09,-28.53 45.93,-66.56 68.25,-92.79l38.06 -43.23c6.68,-8.66 10.11,-10.24 15.24,-16.37 17.31,-20.71 111.99,-116.21 120.85,-122.98l171.21 -153.9c20.18,-19.22 150.84,-124.35 177.79,-145.82 12.25,-9.76 23.88,-18.84 36.11,-28.61 82.93,-66.22 173.63,-132.42 258.68,-195.87l93.96 -68.6c6.51,-4.81 12.78,-9.39 19.34,-13.77l-32.63 62.19c-2.42,4.32 -3.66,5.81 -6.02,10.54l-144.5 257.37c-16.31,27.27 -31.13,53.12 -47.77,80.17 -29.36,47.71 -108.89,174.83 -138.26,213.94 -5.09,6.77 -8.48,12.82 -13.55,19.56 -4.69,6.24 -8.84,12.45 -13.11,18.5 -22.16,31.41 -58.28,82.73 -80.82,110.34l-42.4 53.93c-4.91,6.02 -9.39,10.82 -14.4,17.2 -5.08,6.47 -10.36,11.51 -15.28,17.84l-22.07 26.1c-3.15,3.38 -5.02,4.6 -8.04,8.51 -13.96,18.09 -68.49,73.21 -86.79,89.31l-24.86 23.31c-3.59,3.19 -5.27,3.97 -9.02,7.54 -3.6,3.43 -5.34,4.26 -9.01,7.53 -53.7,47.84 -143.2,103.47 -218.64,103.47zm-186.64 -86.8l0 -27.74c3.55,-48.21 24.68,-92.48 44.29,-125.64 3.38,-5.71 5.38,-9.6 9,-15.08 24.63,-37.32 52.16,-78.93 82.55,-111.62 11.58,-12.45 21.95,-26.43 33.89,-38.36 4.61,-4.6 6.39,-8.02 11.25,-12.83 27.72,-27.39 69.31,-75.02 96.19,-96.46l145.44 -131.51c41.09,-35.8 83.93,-69.71 126.3,-103.99l66.89 -53.52c67.47,-53.75 137.07,-104.85 206.01,-156.73 4.69,-3.53 9,-6.34 13.99,-10.1l281.32 -201.83c17.95,-12.23 27.26,-15.49 37.31,-34.93l25.1 -47.14c5.65,-11.32 10.41,-20.81 16.06,-32.12 10.63,-21.25 22.67,-42.6 31.74,-64.59l47.53 -96.96c4.36,-8.69 12.8,-23.45 15.05,-33.11 -7.95,5.32 -28.69,30.67 -37.22,39.54l-21.83 23.33c-23.02,23.27 -45.21,47 -69.24,69.22l-47.44 42.87c-3.4,3.18 -4.27,4.38 -7.89,7.16 -5.19,3.97 -10.93,9.27 -16.23,13.88 -5.58,4.87 -10.77,8.84 -16.54,13.56 -75.66,61.81 -192.97,144.19 -296.26,114.94 -7.7,-2.18 -15.49,-5.35 -21.7,-8.4 -26.32,-12.91 -25.31,-13.74 -45.77,-29.49 -8.43,-6.48 -15.82,-16.04 -21.67,-24.99 -30.67,80.91 -94.15,126.19 -161.62,174.24 -148.07,105.43 -365.16,281.19 -672.31,302.56 -100.05,6.97 -295.9,-35.62 -378.77,-84.54 -197.49,-116.59 -637.05,-262.47 -899.54,-272.8 -98.33,-3.86 -157.56,-10.7 -266.95,-10.15 -152.39,0.75 -404.55,29.93 -1007.92,174.37 -66.74,15.97 -62.04,-17.84 -10.03,-33.79 542.27,-166.31 994.48,-210.33 1298.63,-178.95 489.31,50.49 623.34,140.61 930.54,287.7 71.26,34.12 225.99,77.1 307.57,71.58 143.14,-9.68 337.33,-64.34 666.14,-288.63 61.72,-42.1 122.95,-80.24 142.88,-191.57 5.11,-28.6 23.17,-73.45 37.27,-114.44l55.33 -106.88c18.74,-31.32 40.55,-60.41 63.4,-88.63 13.32,-16.45 26.43,-33.93 41.51,-48.8 3.61,-3.56 3.96,-4.46 6.91,-8.15l36.72 -38.53c20.33,-20.33 41.05,-40.53 64.12,-57.79 10.79,-8.07 24.04,-17.54 37.62,-22.59 22.02,-8.19 34.46,-2.4 29.03,23 -6.6,30.82 -25.06,54.92 -41.75,80.18 -30.69,46.44 -78.25,97.08 -117.69,156.24 -4.3,6.44 -7.38,11.73 -11.74,18.37 -24.84,37.81 -46.6,76.61 -61.38,120.73 -9.22,27.53 -18.63,72.58 14.12,89.37 9.45,4.85 8.97,7.63 24.02,7.59 26.39,-0.07 50.81,-6.56 72.81,-17.62 39.39,-19.8 111.6,-69.86 142.11,-100.21l48.17 -43.64c5.35,-5.41 9.66,-9.68 15.04,-15.06 23.3,-23.3 73.6,-71.85 97.15,-100.03l236.15 -263.56c22.29,-19.85 0,0 22.29,-19.85 8.1,-12.09 20.17,-21.39 33.57,-28.14 5.84,-2.95 15.76,-6.37 23.66,-6.57 9.75,-0.24 16.39,3.67 21.97,8.2 20.78,16.86 12.21,49.72 4.01,70.61 -2.26,5.76 -16.41,42.03 -16.84,43.34 -6.42,19.75 -15.08,39.33 -22.93,58.34l-116.18 251.08c-6.06,12.11 -51.19,98.13 -53.69,108.87 111.05,-86.82 519.74,-496.77 546.08,-513.42 3.06,-1.86 86.7,-164.69 120.63,-228.69 2.52,-4.37 4.16,-7.89 6.95,-12.61 42.58,-71.78 82.46,-144.36 126.21,-215.46l77.61 -124.08c5.43,-8.16 10.85,-15.88 16.29,-24.35 37.01,-57.72 89.19,-137.2 130.15,-191.95l67.74 -91.81c24.28,-32.55 51.12,-63.56 76.54,-95.04l13.71 -16.4c4.03,-4.31 5.3,-5.93 9.1,-10.46 18.47,-21.96 38.99,-42.55 57.9,-64.02 12.37,-14.05 26.69,-26.6 39.86,-39.91l31.61 -28.6c13.25,-13.17 28.93,-24.6 43.93,-35.85 19.57,-14.67 40.99,-28.62 62.58,-39.77 22.1,-11.41 46.31,-23.08 71.1,-28.23 26.25,-5.46 45.97,-7.94 73.11,-4.61 41.98,5.15 82.22,19.29 112.05,48.99 46.8,46.6 45.47,121.75 21.31,184.67 -12.26,31.96 -21.01,50.52 -38.74,80.16 -20.08,33.58 -39.82,66.63 -63.15,97.9l-53.14 68.78c-6.05,7.65 -11.22,14.41 -17.58,21.55l-84.25 97.88c-4.39,4.38 -5.23,5.78 -9.13,10.44 -3.44,4.12 -6.93,6.62 -10.45,10.61 -3.73,4.24 -4.73,6.29 -9.03,10.54l-19.58 21.07c-7.19,7.12 -12.65,12.24 -18.97,20.16 -10.87,13.62 -95.54,96.33 -111.97,110.79l-30.1 30.1c-4.24,4.3 -6.3,5.3 -10.54,9.04 -15.77,13.88 -34.06,34.08 -51.86,48.97 -3.83,3.19 -7.03,6.86 -10.6,10.47 -16.87,17.07 -45.26,39.75 -62.5,56.41l-52.64 46.7c-14.55,12.93 -28.44,25.62 -43.5,37.78 -2.35,1.9 -3.25,3.04 -5.6,4.94l-104.92 86.23c-4.06,3.19 -6.96,5.54 -10.84,8.73 -3.88,3.2 -7.26,5.42 -11.09,8.47 -16.32,13.04 -167.75,135.56 -227.37,162.13 -23.67,10.56 -26.88,9.82 6.23,-45.15 36.66,-58.46 70.13,-94.33 84,-108.11 7.44,-7.39 12.26,-13.8 19.57,-21.08 7.39,-7.35 13.76,-12.22 21.08,-19.56 3.64,-3.66 6.81,-7.3 10.68,-10.39l52.56 -46.78c16.85,-16.7 36.05,-31.25 52.65,-48.19l93.34 -85.78c7.58,-7 12.33,-13.3 20.79,-19.84l51.41 -49.44c4.09,-3.94 6.48,-4.91 10.6,-8.98l260.35 -263.42c4.65,-4.57 5.77,-6.33 9.86,-11.22 3.2,-3.84 6.36,-6.19 9.73,-9.84l37.54 -42.23c6.62,-7.87 12.09,-14.18 18.86,-21.78 24.34,-27.31 50.35,-59.8 72.11,-88.94l34.7 -46.58c5.51,-8.1 11.13,-14.39 16.57,-22.55l31.58 -48.2c19.97,-33.12 43.1,-71.91 49.04,-112.01 4.73,-31.95 -7.09,-43.1 -28.77,-50.31 -45.24,-15.04 -85.85,5.44 -123.39,27.6 -8.99,5.31 -15.86,10.34 -24.23,16.39l-23.24 17.41 -122.47 118.35c-15.37,15.5 -28.46,32.6 -42.95,48.87l-22.72 26.95c-45.37,56.03 -89.68,112.17 -131.79,170.73 -33.41,46.47 -67.01,93.08 -98.71,140.62l-261.81 421.53 -151.09 271.85c-2.64,4.89 -4.62,7.62 -7.05,12.52 -2.17,4.39 -3.96,8.36 -6.5,13.06 -2.63,4.9 -4.61,7.63 -7.04,12.53 -4.65,9.38 -9.34,17.1 -14.05,26.6 -2.43,4.91 -3.99,8.17 -6.49,13.07 -2.83,5.54 -5.21,7.27 -6.54,13.02 136.66,15.92 252.82,-30.57 331.97,-75.9 1126.98,-645.5 2887.8,-349.36 3236.17,-121.25 213.6,139.85 61.34,104.63 -11.85,51.6 -264.49,-191.67 -2069.33,-503.81 -3216.43,114.81 -47.39,25.56 -209.21,97.83 -359.43,63.85 -4.56,19.59 -25.64,42.71 -30.98,62.35l0.93 89.72c-0.22,7.2 -1.21,6.88 -1.57,13.49 -0.26,4.87 0.2,10.21 0.06,15.11l-1.97 28.14c-2.26,16.75 -3.81,39.03 -5.46,56.24 -8.7,90.15 -23.35,178.18 -39.92,267.14 -19.48,104.69 -62.82,294.09 -96.25,392.91l-30.11 91.81c-28.47,85.54 -45.24,119.73 -79.22,196.22l-21.35 40.37c-3.83,6.3 -7.11,12.65 -10.76,19.34 -3.74,6.87 -7.68,13.37 -11.81,19.8l-37.34 52.96c-35.29,45.18 -90.91,95.97 -153.47,87.25 -29.52,-4.11 -40.86,-16.55 -54.55,-38.77 -4.12,-6.69 -5.42,-13.65 -8.17,-21.93 -23.61,-70.98 23.67,-236.48 44.28,-309.84 9.15,-32.61 19,-62.45 29.49,-93.93 40.14,-120.39 86.48,-238.46 133.62,-355.55l54.37 -129.26c27.43,-64.19 58.35,-128.2 84.94,-190.5l68.17 -145.56c6.72,-13.4 133.01,-243.28 135.5,-253.93 -135.47,115.89 -417.13,387.06 -515.83,441.04l-17.02 32.65c-19.02,38.35 -71.71,134.37 -93.26,171.64l-69.38 123.28c-11.68,20.29 -23.94,39.82 -35.58,60.75l-72.8 119.86c-12.1,20.35 -25.17,39.73 -37.84,59.99 -33.83,54.09 -70.13,106.45 -105.36,159.55 -3.56,5.35 -6.46,8.96 -9.96,14.13 -6.96,10.27 -13.34,18.91 -20.45,29.21 -6.83,9.9 -12.93,18.6 -20.04,28.12l-40.64 55.7c-53.86,71.74 -131.74,170.77 -197.98,237.01l-60.93 59.48c-33.14,31.9 -84.14,72.06 -121.68,95.05 -20.31,12.44 -39.17,24.68 -61.92,34.42 -48.77,20.88 -104.39,38.02 -160.21,28.4 -32.43,-5.6 -47.3,-10.99 -72.54,-23.79 -40.33,-20.46 -77.33,-60.36 -85.91,-106.75 -1.13,-6.1 -1.9,-12.18 -2.37,-18.21zm1342.59 -126.93c-10.4,0 -22.75,1.62 -29.1,-11.53 -20.71,-42.85 19.28,-181.71 28.78,-219.07 7.57,-29.74 39.7,-130.48 48.7,-154.5 28.72,-76.6 52.91,-141.86 83.84,-218.69 16.91,-42 56.77,-138.79 75.49,-177.38l23.22 -52.04c18.84,-45.4 56.96,-125.6 80.66,-173.71 2.87,-5.82 4.84,-11.32 8,-17.58l100.35 -203.7 -6.45 95.9c-12.72,100.33 -21.37,164.38 -41.84,266.72 -19.17,95.85 -34.99,159.68 -58.26,250.3 -31.55,122.91 -91.71,304.4 -148.85,418.59 -26.33,52.64 -38.96,78.69 -76.8,129.39 -19.08,25.56 -56.55,67.3 -87.74,67.3z"/>
 </g>
</svg>
