<?xml version="1.0" encoding="UTF-8"?>
<!DOCTYPE svg PUBLIC "-//W3C//DTD SVG 1.1//EN" "http://www.w3.org/Graphics/SVG/1.1/DTD/svg11.dtd">
<!-- Creator: CorelDRAW 2021 (64-Bit) -->
<svg xmlns="http://www.w3.org/2000/svg" xml:space="preserve" width="84.6666mm" height="18.1236mm" version="1.1" style="shape-rendering:geometricPrecision; text-rendering:geometricPrecision; image-rendering:optimizeQuality; fill-rule:evenodd; clip-rule:evenodd"
viewBox="0 0 8466.66 1812.36"
 xmlns:xlink="http://www.w3.org/1999/xlink"
 xmlns:xodm="http://www.corel.com/coreldraw/odm/2003">
 <defs>
  <style type="text/css">
   <![CDATA[
    .fil0 {fill:#FFB4B1;fill-rule:nonzero}
   ]]>
  </style>
 </defs>
 <g id="Layer_x0020_1">
  <metadata id="CorelCorpID_0Corel-Layer"/>
  <g id="_2176955154416">
   <polygon class="fil0" points="290.68,655.15 290.68,355.37 511.19,17.31 487.5,17.31 278.84,335.32 89.31,17.31 0.01,17.31 213.23,377.23 213.23,655.15 "/>
   <path id="_1" class="fil0" d="M619.46 655.15l102.96 -260.6 233.27 0 101.14 260.6 82.01 0 -247.85 -637.84 -82 0 19.13 51.03 -230.53 586.81 21.87 0zm220.51 -558.57l108.43 279.74 -218.69 0 110.26 -279.74z"/>
   <path id="_2" class="fil0" d="M1546.89 664.26c124.83,1.82 220.51,-77.45 220.51,-183.15 0,-190.44 -375.42,-158.55 -386.35,-322.56 -5.47,-83.83 61.96,-134.86 146.7,-133.95 81.1,0.91 138.51,59.23 139.42,164.02l83.83 0c-24.61,-117.55 -109.35,-180.42 -225.07,-180.42 -112.08,0 -206.84,76.54 -206.84,182.24 0,194.99 374.5,161.28 384.52,318.92 5.47,84.74 -60.13,141.23 -158.54,138.5 -92.95,-1.82 -156.73,-57.41 -157.64,-164.02l-84.74 0c25.51,119.37 115.72,178.6 244.2,180.42z"/>
   <polygon id="_3" class="fil0" points="1947.64,655.15 2111.66,97.5 2286.61,655.15 2368.62,655.15 2350.39,598.66 2487.07,96.58 2670.22,655.15 2752.23,655.15 2543.57,17.31 2460.65,17.31 2476.14,63.78 2340.37,564.94 2168.15,17.31 2087.06,17.31 2101.64,64.69 1928.51,655.15 "/>
   <polygon id="_4" class="fil0" points="3039.09,655.15 3039.09,17.31 2961.64,17.31 2961.64,655.15 "/>
   <polygon id="_5" class="fil0" points="3267.63,655.15 3431.65,97.5 3606.6,655.15 3688.61,655.15 3670.38,598.66 3807.06,96.58 3990.21,655.15 4072.22,655.15 3863.56,17.31 3780.64,17.31 3796.13,63.78 3660.36,564.94 3488.14,17.31 3407.05,17.31 3421.63,64.69 3248.5,655.15 "/>
   <polygon id="_6" class="fil0" points="4624.24,655.15 4624.24,335.32 4871.17,335.32 4871.17,316.18 4624.24,316.18 4624.24,36.45 4934.95,36.45 4934.95,17.31 4546.78,17.31 4546.78,655.15 "/>
   <path id="_7" class="fil0" d="M5219.08 655.15l0 -302.52 133.03 0 178.6 302.52 90.2 0 -185.88 -314.36c93.85,-24.61 131.21,-88.39 131.21,-155.82 0,-90.21 -65.6,-167.66 -238.73,-167.66l-185.89 0 0 637.84 77.46 0zm0 -618.7l92.94 0c123.92,0 172.21,63.78 172.21,148.52 0,84.74 -48.29,149.44 -172.21,149.44l-92.94 0 0 -297.96z"/>
   <polygon id="_8" class="fil0" points="6216.67,655.15 6216.67,636.01 5896.84,636.01 5896.84,335.32 6143.77,335.32 6143.77,316.18 5896.84,316.18 5896.84,36.45 6216.67,36.45 6216.67,17.31 5819.38,17.31 5819.38,655.15 "/>
   <polygon id="_9" class="fil0" points="6517.19,655.15 6517.19,17.31 6439.74,17.31 6439.74,655.15 "/>
   <polygon id="_10" class="fil0" points="7002.69,655.15 7002.69,36.45 7202.24,36.45 7202.24,17.31 6727.51,17.31 6727.51,36.45 6925.24,36.45 6925.24,655.15 "/>
   <path id="_11" class="fil0" d="M7318.71 655.15l102.96 -260.6 233.27 0 101.14 260.6 82.01 0 -247.85 -637.84 -82 0 19.13 51.03 -230.53 586.81 21.87 0zm220.51 -558.57l108.43 279.74 -218.69 0 110.26 -279.74z"/>
   <path id="_12" class="fil0" d="M8246.14 664.26c124.83,1.82 220.51,-77.45 220.51,-183.15 0,-190.44 -375.42,-158.55 -386.35,-322.56 -5.47,-83.83 61.96,-134.86 146.7,-133.95 81.1,0.91 138.51,59.23 139.42,164.02l83.83 0c-24.61,-117.55 -109.35,-180.42 -225.07,-180.42 -112.08,0 -206.84,76.54 -206.84,182.24 0,194.99 374.5,161.28 384.52,318.92 5.47,84.74 -60.13,141.23 -158.54,138.5 -92.95,-1.82 -156.73,-57.41 -157.64,-164.02l-84.74 0c25.51,119.37 115.72,178.6 244.2,180.42z"/>
   <path class="fil0" d="M2709.01 1693.91l46.59 -4.19c2.18,18.85 7.33,34.29 15.44,46.42 8.12,12.04 20.68,21.81 37.69,29.31 17.02,7.42 36.21,11.17 57.5,11.17 18.93,0 35.6,-2.79 50.08,-8.46 14.48,-5.67 25.21,-13.44 32.28,-23.3 7.07,-9.86 10.64,-20.59 10.64,-32.11 0,-11.69 -3.4,-21.89 -10.2,-30.71 -6.81,-8.72 -18.06,-16.05 -33.77,-22.07 -10.03,-3.84 -32.28,-9.95 -66.74,-18.23 -34.46,-8.29 -58.55,-16.06 -72.33,-23.39 -17.89,-9.42 -31.15,-21.11 -39.87,-34.98 -8.81,-13.87 -13.18,-29.49 -13.18,-46.68 0,-19.02 5.41,-36.73 16.14,-53.13 10.74,-16.49 26.35,-28.97 47.03,-37.52 20.59,-8.55 43.54,-12.82 68.75,-12.82 27.75,0 52.26,4.45 73.46,13.43 21.2,8.9 37.52,22.08 48.95,39.53 11.43,17.36 17.53,37.08 18.41,59.06l-47.64 3.67c-2.53,-23.65 -11.17,-41.53 -25.91,-53.57 -14.75,-12.13 -36.56,-18.15 -65.35,-18.15 -30.01,0 -51.91,5.5 -65.61,16.49 -13.7,10.99 -20.59,24.25 -20.59,39.78 0,13.44 4.89,24.52 14.57,33.24 9.6,8.64 34.46,17.63 74.77,26.7 40.31,9.16 67.97,17.1 82.97,23.91 21.73,10.03 37.87,22.68 48.25,38.12 10.38,15.36 15.53,33.07 15.53,53.14 0,19.98 -5.67,38.65 -17.1,56.27 -11.43,17.62 -27.74,31.32 -49.12,41.09 -21.38,9.78 -45.37,14.66 -72.15,14.66 -33.85,0 -62.21,-4.97 -85.07,-14.83 -22.94,-9.86 -40.83,-24.69 -53.83,-44.58 -13.09,-19.81 -19.89,-42.23 -20.59,-67.27z"/>
   <polygon id="_1_0" class="fil0" points="3393.38,1814.31 3393.38,1483.47 3269.84,1483.47 3269.84,1439.5 3566.65,1439.5 3566.65,1483.47 3443.11,1483.47 3443.11,1814.31 "/>
   <path id="_2_1" class="fil0" d="M4087.09 1439.5l49.73 0 0 216.46c0,37.69 -4.27,67.61 -12.74,89.77 -8.55,22.08 -23.9,40.14 -46.06,54.01 -22.25,13.87 -51.3,20.85 -87.42,20.85 -34.99,0 -63.69,-6.02 -85.94,-18.15 -22.34,-12.12 -38.22,-29.57 -47.73,-52.52 -9.51,-22.94 -14.31,-54.27 -14.31,-93.96l0 -216.46 49.74 0 0 216.37c0,32.54 3.05,56.62 9.07,71.98 6.02,15.44 16.31,27.39 31.06,35.68 14.66,8.38 32.63,12.57 53.83,12.57 36.29,0 62.21,-8.29 77.65,-24.78 15.44,-16.58 23.12,-48.34 23.12,-95.45l0 -216.37z"/>
   <path id="_3_2" class="fil0" d="M4443.33 1814.31l0 -374.81 129.12 0c29.14,0 51.39,1.74 66.75,5.32 21.46,4.97 39.78,13.96 54.96,26.87 19.81,16.75 34.55,38.04 44.32,64.04 9.86,26 14.75,55.75 14.75,89.17 0,28.44 -3.32,53.65 -9.95,75.64 -6.63,21.99 -15.18,40.22 -25.56,54.62 -10.47,14.39 -21.81,25.73 -34.2,33.94 -12.3,8.28 -27.22,14.57 -44.67,18.84 -17.54,4.28 -37.61,6.37 -60.29,6.37l-135.23 0zm49.73 -43.97l79.92 0c24.69,0 44.06,-2.27 58.1,-6.89 14.05,-4.63 25.22,-11.09 33.59,-19.46 11.69,-11.78 20.85,-27.66 27.4,-47.55 6.54,-19.89 9.86,-43.97 9.86,-72.33 0,-39.26 -6.46,-69.45 -19.28,-90.56 -12.83,-21.11 -28.45,-35.25 -46.86,-42.4 -13.26,-5.15 -34.63,-7.68 -64.12,-7.68l-78.61 0 0 286.87z"/>
   <polygon id="_4_3" class="fil0" points="5053.45,1814.31 5053.45,1439.5 5103.18,1439.5 5103.18,1814.31 "/>
   <path id="_5_4" class="fil0" d="M5399.05 1631.88c0,-62.12 16.75,-110.81 50.16,-145.97 33.42,-35.16 76.52,-52.69 129.39,-52.69 34.64,0 65.78,8.28 93.62,24.77 27.74,16.49 48.94,39.53 63.51,69.1 14.57,29.49 21.9,63 21.9,100.42 0,37.96 -7.68,71.98 -23.03,101.91 -15.36,30.01 -37.08,52.7 -65.18,68.05 -28.18,15.44 -58.54,23.12 -91.08,23.12 -35.34,0 -66.83,-8.55 -94.66,-25.56 -27.75,-17.01 -48.86,-40.22 -63.17,-69.71 -14.31,-29.4 -21.46,-60.55 -21.46,-93.44zm51.3 0.87c0,45.11 12.13,80.62 36.38,106.53 24.25,25.91 54.7,38.91 91.35,38.91 37.34,0 67.96,-13.09 92.13,-39.26 24.08,-26.18 36.12,-63.34 36.12,-111.5 0,-30.45 -5.15,-57.06 -15.44,-79.75 -10.3,-22.68 -25.39,-40.3 -45.2,-52.78 -19.89,-12.48 -42.14,-18.76 -66.83,-18.76 -35.07,0 -65.26,12.04 -90.56,36.12 -25.3,24.08 -37.95,64.22 -37.95,120.49z"/>
  </g>
 </g>
</svg>
